# xmcd
#
# Track frame offsets:
#	150
#	14305
#	29515
#	42139
#	55582
#	63403
#	79933
#	98016
#	113918
#	131614
#	144108
#	155682
#
# Disc length: 2233 seconds
#
# Revision: 0
# Processed by: cddbd v1.5.2PL0 Copyright (c) Steve Scherf et al.
# Submitted via: EasyCDDAExtractor 16.0.6.1
#
DISCID=9508b70c
DTITLE=Various Artist - Big Country Hits
DYEAR=2005
DGENRE=Country
TTITLE0=Conway Twitty - You've Never Been This Far Before
TTITLE1=Eddy Raven - Shine Shine Shine
TTITLE2=Johnny Lee - Bet Your Heart On Me
TTITLE3=The Kendalls - Thank God For the Radio
TTITLE4=Roger Miller - Dang Me
TTITLE5=Lee Greenwood - Somebody's Gonna Love You
TTITLE6=T. Graham Brown - Don't Go To Strangers
TTITLE7=Bill Anderson - Mama Sang a Song
TTITLE8=Merle Haggard - I Think I'll Just Stay Here And Drink
TTITLE9=Jerry Wallace - If You Leave Me Tonight I'll Cry
TTITLE10=Ricky Van Shelton - Don't We Have the Right
TTITLE11=Ernie Ashworth - Talk Back Trembling Lips
EXTD=
EXTT0=
EXTT1=
EXTT2=
EXTT3=
EXTT4=
EXTT5=
EXTT6=
EXTT7=
EXTT8=
EXTT9=
EXTT10=
EXTT11=
PLAYORDER=
